SplineFontDB: 3.0
FontName: Coiny-Regular
FullName: Coiny
FamilyName: Coiny Regular
Weight: Regular
Copyright: Copyright (c) 2015, Marcelo Magalhaes
Version: 1.0
ItalicAngle: 0
UnderlinePosition: -100
UnderlineWidth: 50
Ascent: 760
Descent: 240
InvalidEm: 0
UFOAscent: 760
UFODescent: -240
LayerCount: 2
Layer: 0 0 "Back" 1
Layer: 1 0 "Fore" 0
PreferredKerning: 4
FSType: 0
OS2Version: 0
OS2_WeightWidthSlopeOnly: 0
OS2_UseTypoMetrics: 0
CreationTime: 1439303423
ModificationTime: 1439514653
PfmFamily: 16
TTFWeight: 400
TTFWidth: 5
LineGap: 90
VLineGap: 0
Panose: 2 0 5 3 0 0 0 0 0 0
OS2TypoAscent: 760
OS2TypoAOffset: 0
OS2TypoDescent: -240
OS2TypoDOffset: 0
OS2TypoLinegap: 90
OS2WinAscent: 765
OS2WinAOffset: 0
OS2WinDescent: 240
OS2WinDOffset: 0
HheadAscent: 765
HheadAOffset: 0
HheadDescent: -240
HheadDOffset: 0
OS2SubXSize: 650
OS2SubYSize: 700
OS2SubXOff: 0
OS2SubYOff: 140
OS2SupXSize: 650
OS2SupYSize: 700
OS2SupXOff: 0
OS2SupYOff: 480
OS2StrikeYSize: 49
OS2StrikeYPos: 258
OS2CapHeight: 0
OS2XHeight: 515
OS2Vendor: 'PfEd'
OS2CodePages: 00000001.00000000
OS2UnicodeRanges: 00000005.00000000.00000000.00000000
MarkAttachClasses: 1
DEI: 91125
LangName: 1033 "Copyright (c) 2015, Marcelo Magalhaes" "" "" "FontForge : Coiny : 10-8-2015" "" "Version 001.000"
Encoding: Original
UnicodeInterp: none
NameList: AGL For New Fonts
DisplaySize: -96
AntiAlias: 1
FitToEm: 1
WinInfo: 0 13 5
BeginPrivate: 5
BlueValues 14 [-4 0 515 515]
OtherBlues 11 [-240 -240]
StemSnapH 36 [79 117 122 134 147 162 170 178 711]
StemSnapV 35 [90 95 102 213 217 224 236 243 258]
BlueShift 1 0
EndPrivate
Grid
-1000 342 m 0
 2000 342 l 1024
-1000 610.916625977 m 0
 2000 610.916625977 l 1024
  Named: "caps"
-1000 408.857818604 m 0
 2000 408.857818604 l 1024
  Named: "x"
EndSplineSet
BeginChars: 41 39

StartChar: b
Encoding: 3 98 3
GlifName: b
Width: 526
VWidth: 0
GlyphClass: 2
Flags: HW
HStem: 21.6024 107.2 24.8024 568.8 328.802 108
VStem: 35.1856 173.6 124.785 81.6 313.585 188.8
LayerCount: 2
Back
Fore
SplineSet
220.41015625 136.545898438 m 5
 229.703125 118.787109375 243.897460938 106.802734375 263.900390625 106.802734375 c 4
 297.557617188 106.802734375 313.5 158.317382812 313.5 204.40234375 c 4
 313.5 253.857421875 294.799804688 307.147460938 263.252929688 307.147460938 c 4
 243.720703125 307.147460938 229.577148438 294.036132812 220.26953125 274.923828125 c 5
 220.26953125 247.602539062 220.41015625 186.802734375 220.41015625 136.545898438 c 5
219.4921875 372.358398438 m 5
 254.081054688 398.040039062 296.380859375 414.801757812 343.393554688 414.801757812 c 5
 434 414.801757812 502 335.603515625 502 204.40234375 c 4
 502 74.443359375 392.400390625 -0.3974609375 244.400390625 -0.3974609375 c 4
 117.200195312 -0.3974609375 30.845703125 57.5166015625 30.845703125 166.001953125 c 4
 30.845703125 262.053710938 28.9091796875 408.6328125 28.9091796875 484.118164062 c 4
 28.9091796875 559.603515625 70.1376953125 588.421875 124.784179688 588.421875 c 4
 179.883789062 588.421875 211.194335938 576.262695312 216.122070312 491.932617188 c 4
 217.827148438 462.741210938 218.865234375 420.013671875 219.4921875 372.358398438 c 5
EndSplineSet
PickledDataWithLists: "(dp1
S'com.fontlab.hintData'
p2
(dp3
S'vhints'
p4
(lp5
(dp6
S'position'
p7
I42
sS'width'
p8
I217
sa(dp9
g7
I154
sg8
I102
sa(dp10
g7
I390
sg8
I236
sasS'hhints'
p11
(lp12
(dp13
g7
I-4
sg8
I134
sa(dp14
g7
I0
sg8
I711
sa(dp15
g7
I380
sg8
I135
sass."
EndChar

StartChar: c
Encoding: 4 99 4
GlifName: c
Width: 495
VWidth: 0
GlyphClass: 2
Flags: HW
HStem: -0.123047 136 321.477 93.6
VStem: 24.8504 188.8
LayerCount: 2
Back
Fore
SplineSet
270.599609375 241.35546875 m 260
 270.599609375 263.755859375 283.889648438 283.158203125 283.889648438 296.412109375 c 260
 283.889648438 311.276367188 278.934570312 321.24609375 261.333984375 321.24609375 c 260
 232.051757812 321.24609375 213.416992188 271.392578125 213.416992188 223.875976562 c 256
 213.416992188 172.276367188 247.739257812 135.875976562 302.599609375 135.875976562 c 256
 329.826171875 135.875976562 357.799804688 139.076171875 379.734375 145.516601562 c 256
 407.443359375 153.65234375 418.393554688 168.60546875 433.458984375 168.60546875 c 256
 461.400390625 168.60546875 475 152.67578125 475 135.875976562 c 256
 475 97.076171875 402.063476562 -0.306640625 268.8515625 -0.306640625 c 256
 132.056640625 -0.306640625 24.515625 73.4765625 24.515625 204.525390625 c 256
 24.515625 335.876953125 127.3359375 415.076171875 268.8515625 415.076171875 c 260
 410.783203125 415.076171875 465.469726562 363.4765625 465.469726562 291.076171875 c 260
 465.469726562 253.618164062 436.8515625 189.3828125 338.599609375 189.3828125 c 260
 301.44921875 189.3828125 270.599609375 193.975585938 270.599609375 241.35546875 c 260
EndSplineSet
PickledDataWithLists: "(dp1
S'com.fontlab.hintData'
p2
(dp3
S'vhints'
p4
(lp5
(dp6
S'position'
p7
I31
sS'width'
p8
I236
sasS'hhints'
p9
(lp10
(dp11
g7
I-4
sg8
I170
sa(dp12
g7
I398
sg8
I117
sass."
EndChar

StartChar: e
Encoding: 6 101 6
GlifName: e
Width: 495
VWidth: 0
GlyphClass: 2
Flags: HW
HStem: -0.122852 136 187.077 64 321.477 93.6
VStem: 283.939 181.6
LayerCount: 2
Back
Fore
SplineSet
268.852539062 -0.3056640625 m 260
 132.056640625 -0.3056640625 24.515625 73.4775390625 24.515625 204.526367188 c 260
 24.515625 335.877929688 127.336914062 415.077148438 268.852539062 415.077148438 c 260
 410.783203125 415.077148438 465.470703125 363.477539062 465.470703125 291.077148438 c 260
 465.470703125 242.732421875 428.193359375 190.26953125 336.599609375 189.477539062 c 262
 89.400390625 187.477539062 l 261
 121.799804688 251.077148438 l 261
 121.799804688 251.077148438 256.221679688 253.743164062 264.956054688 253.743164062 c 260
 271.982421875 253.743164062 276.029296875 257.400390625 279.072265625 264.90625 c 260
 282.116210938 272.411132812 283.889648438 283.159179688 283.889648438 296.413085938 c 260
 283.889648438 311.27734375 278.935546875 321.247070312 261.334960938 321.247070312 c 260
 238.452148438 321.247070312 213.41796875 281.477539062 213.41796875 229.477539062 c 260
 213.41796875 175.876953125 243.251953125 135.876953125 302.599609375 135.876953125 c 260
 329.826171875 135.876953125 357.799804688 139.077148438 379.735351562 145.517578125 c 260
 407.443359375 153.653320312 418.393554688 168.606445312 433.458984375 168.606445312 c 260
 461.400390625 168.606445312 475 152.676757812 475 135.876953125 c 260
 475 97.0771484375 402.063476562 -0.3056640625 268.852539062 -0.3056640625 c 260
EndSplineSet
PickledDataWithLists: "(dp1
S'com.fontlab.hintData'
p2
(dp3
S'vhints'
p4
(lp5
(dp6
S'position'
p7
I372
sS'width'
p8
I227
sasS'hhints'
p9
(lp10
(dp11
g7
I-4
sg8
I170
sa(dp12
g7
I230
sg8
I80
sa(dp13
g7
I398
sg8
I117
sass."
EndChar

StartChar: f
Encoding: 7 102 7
GlifName: f
Width: 440
VWidth: 0
GlyphClass: 2
Flags: HW
HStem: 294.883 142.4 522.883 117.6<297.577 315.177>
VStem: 110.719 180 119.519 189.6
LayerCount: 2
Back
Fore
SplineSet
275.620117188 536.80078125 m 260
 291.620117188 536.80078125 297.220703125 529.600585938 297.220703125 518.400390625 c 260
 297.220703125 504 283.032226562 490.807617188 283.032226562 472.887695312 c 260
 283.032226562 434.983398438 311.5 431.309570312 341.220703125 431.309570312 c 260
 397.220703125 431.309570312 430.814453125 462.400390625 430.814453125 512.6640625 c 260
 430.814453125 570.583984375 389.106445312 611.86328125 273.520507812 611.86328125 c 260
 141.106445312 611.86328125 110.337890625 532.799804688 110.337890625 408.7265625 c 260
 110.337890625 297.651367188 109.463867188 212.799804688 109.463867188 124.048828125 c 260
 109.463867188 28 141.012695312 0 203.403320312 0 c 260
 265.794921875 0 299.018554688 28 299.018554688 130.698242188 c 260
 299.018554688 215.010742188 294.706054688 274.793945312 294.706054688 324.59765625 c 7
 294.706054688 374.400390625 272.291015625 384.73828125 252.419921875 411.600585938 c 260
 240.544921875 427.655273438 234.8203125 455.9609375 234.8203125 481.600585938 c 7
 234.8203125 516.80078125 258.8203125 536.80078125 275.620117188 536.80078125 c 260
EndSplineSet
Refer: 26 139 S 1 0 0 1 -4.467 -38.0824 2
PickledDataWithLists: "(dp1
S'com.fontlab.hintData'
p2
(dp3
S'vhints'
p4
(lp5
(dp6
S'position'
p7
I164
sS'width'
p8
I225
sa(dp9
g7
I175
sg8
I237
sasS'hhints'
p10
(lp11
(dp12
g7
I333
sg8
I178
sa(dp13
g7
I618
sg8
I147
sass."
EndChar

StartChar: g
Encoding: 8 103 8
GlifName: g
Width: 512
VWidth: 0
GlyphClass: 2
Flags: HW
HStem: -210.523 136 -21.7229 107.2 285.477 108
VStem: 11.401 188.8 293.002 188.8 307.402 81.6
LayerCount: 2
Back
Fore
SplineSet
293.09765625 32.4775390625 m 260
 293.09765625 101.668945312 294.225585938 252.477539062 294.225585938 311.288085938 c 260
 294.225585938 370.099609375 326.6796875 409.8984375 381.322265625 409.248046875 c 260
 435.965820312 408.59765625 479.504882812 392.388671875 479.504882812 313.833007812 c 260
 479.504882812 235.27734375 482 83.3544921875 482 13.1259765625 c 260
 482 -117.922851562 398.458984375 -175.706054688 261.663085938 -175.706054688 c 260
 128.452148438 -175.706054688 55.515625 -94.3232421875 55.515625 -55.5224609375 c 260
 55.515625 -38.72265625 69.1162109375 -22.79296875 97.056640625 -22.79296875 c 260
 112.12109375 -22.79296875 123.073242188 -37.74609375 150.780273438 -45.8818359375 c 260
 172.715820312 -52.3232421875 200.689453125 -55.5224609375 227.916015625 -55.5224609375 c 260
 282.776367188 -55.5224609375 293.09765625 -19.123046875 293.09765625 32.4775390625 c 260
EndSplineSet
Refer: 24 137 N 1 0 0 1 -51.3684 -3 2
PickledDataWithLists: "(dp1
S'com.fontlab.hintData'
p2
(dp3
S'vhints'
p4
(lp5
(dp6
S'position'
p7
I235
sS'width'
p8
I236
sa(dp9
g7
I587
sg8
I236
sa(dp10
g7
I605
sg8
I102
sasS'hhints'
p11
(lp12
(dp13
g7
I-240
sg8
I170
sa(dp14
g7
I-4
sg8
I134
sa(dp15
g7
I380
sg8
I135
sass."
EndChar

StartChar: i
Encoding: 10 105 10
GlifName: i
Width: 252
VWidth: 0
GlyphClass: 2
Flags: HW
HStem: 459.949 132
VStem: 18.1404 207.2 27.7404 188.8
LayerCount: 2
Back
Fore
SplineSet
225 527.920898438 m 260
 225 478.192382812 175.998046875 457.204101562 127.7734375 457.204101562 c 260
 70.5361328125 457.204101562 17.8349609375 471.046875 17.8349609375 523.338867188 c 260
 17.8349609375 568.223632812 59.5400390625 589.36328125 122.279296875 589.36328125 c 260
 184.165039062 589.36328125 225 565.435546875 225 527.920898438 c 260
EndSplineSet
Refer: 27 305 S 1 0 0 1 -51.7552 -3 2
PickledDataWithLists: "(dp1
S'com.fontlab.hintData'
p2
(dp3
S'vhints'
p4
(lp5
(dp6
S'position'
p7
I47
sS'width'
p8
I259
sa(dp9
g7
I59
sg8
I236
sasS'hhints'
p10
(lp11
(dp12
g7
I546
sg8
I165
sass."
EndChar

StartChar: m
Encoding: 12 109 12
GlifName: m
Width: 765
VWidth: 0
GlyphClass: 2
Flags: HW
HStem: 3.49708 16.8<359.161 421.765 618.361 680.969> 399.497 16<336.197 398.684 595.401 657.889>
VStem: 31.0972 188.8 142.297 76 292.697 186.4 401.497 76 551.897 186.4
LayerCount: 2
Back
Fore
SplineSet
293.24609375 229.748046875 m 260
 293.24609375 268.7109375 276.799804688 278.739257812 255.201171875 278.739257812 c 260
 233.770507812 278.739257812 219.629882812 251.881835938 219.629882812 214.06640625 c 261
 143.396484375 213.323242188 l 261
 143.396484375 264.000976562 156.45703125 327.374023438 203.770507812 363.731445312 c 260
 250.658203125 399.795898438 299.760742188 412.49609375 359.861328125 412.49609375 c 260
 435.970703125 412.49609375 468 356.497070312 468 207.697265625 c 260
 468 33.296875 452.701171875 0.4970703125 377.599609375 0.4970703125 c 260
 316.534179688 0.4970703125 294.293945312 26.0966796875 294.293945312 72.30859375 c 260
 294.293945312 129.631835938 293.24609375 189.975585938 293.24609375 229.748046875 c 260
541.24609375 229.748046875 m 260
 541.24609375 268.7109375 524.799804688 278.739257812 503.201171875 278.739257812 c 260
 481.770507812 278.739257812 467.629882812 251.881835938 467.629882812 214.06640625 c 261
 391.396484375 213.323242188 l 261
 391.396484375 264.000976562 404.45703125 327.374023438 451.770507812 363.731445312 c 260
 501.061523438 399.795898438 552.680664062 412.49609375 615.861328125 412.49609375 c 260
 697.600585938 412.49609375 732 356.497070312 732 207.697265625 c 260
 732 33.296875 715.34765625 0.4970703125 633.599609375 0.4970703125 c 260
 566.669921875 0.4970703125 542.293945312 26.0966796875 542.293945312 72.30859375 c 260
 542.293945312 129.631835938 541.24609375 189.975585938 541.24609375 229.748046875 c 260
EndSplineSet
Refer: 27 305 S 1 0 0 1 -51.7601 -3 2
PickledDataWithLists: "(dp1
S'com.fontlab.hintData'
p2
(dp3
S'vhints'
p4
(lp5
(dp6
S'position'
p7
I327
sS'width'
p8
I236
sa(dp9
g7
I466
sg8
I95
sa(dp10
g7
I654
sg8
I233
sa(dp11
g7
I790
sg8
I95
sa(dp12
g7
I978
sg8
I233
sasS'hhints'
p13
(lp14
(dp15
g7
I0
sg8
I21
sa(dp16
g7
I495
sg8
I20
sass."
EndChar

StartChar: o
Encoding: 14 111 14
GlifName: o
Width: 531
VWidth: 0
GlyphClass: 2
Flags: HW
HStem: 0.0771484 99.2 399.277 16<199.712 333.624>
VStem: 32.633 194.4 304.633 194.4
LayerCount: 2
Back
Refer: 27 305 N 1 0 0 1 -39.4563 0 2
Refer: 27 305 N 1 0 0 1 -39.4563 0 2
Refer: 27 305 N 1 0 0 1 -39.4563 0 2
Fore
SplineSet
312.28515625 206.41796875 m 260
 312.28515625 261.052734375 298.032226562 320.213867188 267.51953125 320.422851562 c 260
 237.005859375 320.629882812 219.485351562 260.358398438 219.485351562 206.475585938 c 260
 219.485351562 152.6171875 234.833984375 94.4775390625 267.083984375 94.4775390625 c 260
 299.333984375 94.4775390625 312.28515625 151.809570312 312.28515625 206.41796875 c 260
266.658203125 -4.9052734375 m 260
 132.901367188 -4.9052734375 25 70.60546875 25 204.876953125 c 260
 25 340.068359375 128.16796875 421.676757812 266.663085938 421.676757812 c 260
 405.19140625 421.676757812 506.684570312 340.068359375 506.684570312 204.876953125 c 260
 506.684570312 70.60546875 400.447265625 -4.9052734375 266.658203125 -4.9052734375 c 260
EndSplineSet
PickledDataWithLists: "(dp1
S'com.fontlab.hintData'
p2
(dp3
S'vhints'
p4
(lp5
(dp6
S'position'
p7
I-7
sS'width'
p8
I243
sa(dp9
g7
I333
sg8
I243
sasS'hhints'
p10
(lp11
(dp12
g7
I-4
sg8
I124
sa(dp13
g7
I495
sg8
I20
sass."
EndChar

StartChar: r
Encoding: 15 114 15
GlifName: r
Width: 436
VWidth: 0
GlyphClass: 2
Flags: HW
HStem: 285.891 129.6
VStem: 32.0484 188.8 144.848 75.2
LayerCount: 2
Back
Fore
SplineSet
424 314.890625 m 256
 424 240.490234375 394.400390625 220.490234375 343.200195312 220.490234375 c 256
 287.200195312 220.490234375 273.952148438 282.091796875 248.048828125 282.091796875 c 256
 222.14453125 282.091796875 219.0859375 262.66015625 219.82421875 219.748046875 c 257
 144.624023438 219.291992188 l 257
 144.624023438 270.962890625 166.122070312 327.899414062 205.526367188 362.283203125 c 256
 245.6484375 397.291015625 265.600585938 412.090820312 327.227539062 412.435546875 c 256
 393.092773438 412.803710938 424 379.690429688 424 314.890625 c 256
EndSplineSet
Refer: 27 305 S 1 0 0 1 -50.8132 0 2
PickledDataWithLists: "(dp1
S'com.fontlab.hintData'
p2
(dp3
S'vhints'
p4
(lp5
(dp6
S'position'
p7
I36
sS'width'
p8
I236
sa(dp9
g7
I177
sg8
I94
sasS'hhints'
p10
(lp11
(dp12
g7
I353
sg8
I162
sass."
EndChar

StartChar: s
Encoding: 16 115 16
GlifName: s
Width: 427
VWidth: 0
GlyphClass: 2
Flags: HW
HStem: -0.1 97.6 317.5 97.6
LayerCount: 2
Back
SplineSet
202.740234375 -4 m 260
 384.740234375 -4 458.938476562 86.8876953125 458.938476562 158 c 260
 458.938476562 278 398.838867188 294.221679688 273.616210938 330 c 260
 252.616210938 336 164.616210938 343.66796875 164.616210938 378 c 260
 164.616210938 393.66796875 201.5546875 414.099609375 236.897460938 414.099609375 c 260
 261.358398438 414.099609375 294.1171875 407.393554688 319.890625 395.048828125 c 260
 345.740234375 382.666992188 380.06640625 351.859375 398.897460938 351.859375 c 260
 418.397460938 351.859375 433.397460938 367 433.397460938 392.771484375 c 260
 433.397460938 441.271484375 346.971679688 515 207.12890625 515 c 260
 68.740234375 515 -24.3837890625 443 -24.3837890625 375 c 260
 -24.3837890625 315 3.6162109375 277 100.616210938 262 c 260
 235.083984375 241.206054688 248.616210938 161.06640625 248.616210938 131 c 260
 248.616210938 105 224.095703125 95 197.616210938 95 c 260
 183.095703125 95 163.616210938 104.419921875 163.616210938 123 c 260
 163.616210938 143 178.291015625 145 178.291015625 164.034179688 c 260
 178.291015625 206 111.703125 218 65.2646484375 218 c 260
 -16.7353515625 218 -42.3837890625 154.822265625 -42.3837890625 108 c 260
 -42.3837890625 40 25.326171875 -4 202.740234375 -4 c 260
EndSplineSet
Fore
SplineSet
208.352539062 415.099609375 m 260
 97.6416015625 415.099609375 21 362.299804688 21 287.5 c 260
 21 237.900390625 37.0009765625 201.500976562 89 171.099609375 c 260
 134.731445312 144.364257812 226.041015625 140.752929688 226.041015625 116.700195312 c 260
 226.041015625 104.299804688 216.444335938 97.6826171875 188.693359375 97.6826171875 c 260
 161.466796875 97.6826171875 139.893554688 100.8828125 117.958007812 107.323242188 c 260
 90.2509765625 115.458984375 71.5068359375 130.412109375 56.44140625 130.412109375 c 260
 32.8408203125 130.412109375 22.693359375 114.482421875 22.693359375 97.6826171875 c 260
 22.693359375 58.8828125 92.9677734375 -0.099609375 204.840820312 -0.099609375 c 260
 350.44140625 -0.099609375 406.599609375 63.900390625 409.799804688 120.700195312 c 260
 413.354492188 183.799804688 390.599609375 225.5 296.200195312 263.900390625 c 260
 248.85546875 283.158203125 186.974609375 287.099609375 186.974609375 314.565429688 c 260
 186.974609375 327.099609375 203.892578125 334.379882812 232.166992188 334.379882812 c 260
 251.735351562 334.379882812 277.942382812 329.014648438 298.561523438 319.138671875 c 260
 319.241210938 309.233398438 346.702148438 284.587890625 361.766601562 284.587890625 c 260
 377.3671875 284.587890625 389.3671875 296.700195312 389.3671875 317.317382812 c 260
 389.3671875 356.1171875 320.2265625 415.099609375 208.352539062 415.099609375 c 260
EndSplineSet
PickledDataWithLists: "(dp1
S'com.fontlab.hintData'
p2
(dp3
S'hhints'
p4
(lp5
(dp6
S'position'
p7
I-4
sS'width'
p8
I122
sa(dp9
g7
I393
sg8
I122
sass."
EndChar

StartChar: t
Encoding: 17 116 17
GlifName: t
Width: 424
VWidth: 0
GlyphClass: 2
Flags: HW
HStem: 20.4622 117.6<262.95 280.55 262.95 283.006> 286.862 142.4
VStem: 76.1567 175.2
LayerCount: 2
Back
SplineSet
197.098632812 607 m 256
 197.098632812 653.374023438 192.293945312 688.8515625 138.598632812 688.8515625 c 256
 66.0986328125 688.8515625 -19.45703125 639.115234375 -19.45703125 582 c 256
 -19.45703125 444.115234375 -20.9423828125 348.024414062 -20.9423828125 228 c 256
 -20.9423828125 72.9091796875 21.3779296875 0 165.517578125 0 c 256
 309.657226562 0 377.017578125 38.5 377.017578125 112.5 c 256
 377.017578125 178.5 347.517578125 203.5 300.017578125 203.5 c 256
 235.517578125 203.5 246.017578125 147 223.017578125 147 c 256
 202.017578125 147 197.598632812 159 197.598632812 200 c 256
 197.598632812 320.921875 197.098632812 465.0390625 197.098632812 607 c 256
EndSplineSet
Refer: 22 133 S 1 0 0 1 -134.943 0 2
Refer: 22 133 N 1 0 0 1 -134.943 0 2
Refer: 26 139 N 1 0 0 1 -109.958 0 2
Fore
SplineSet
76.1650390625 185.862304688 m 256
 76.1650390625 54.8125 120.133789062 0.078125 236.385742188 0.078125 c 256
 343.333984375 0.078125 389 101.0625 389 161.1328125 c 256
 389 177.932617188 375.399414062 193.862304688 347.458007812 193.862304688 c 256
 321.734375 193.862304688 322.612304688 145.90234375 293.734375 145.90234375 c 256
 274.534179688 145.90234375 268.951171875 154.662109375 268.951171875 192.26171875 c 256
 268.951171875 289 268.55078125 375.493164062 268.55078125 489.0625 c 256
 268.55078125 526.161132812 264.70703125 554.54296875 221.750976562 554.54296875 c 256
 163.750976562 554.54296875 77.353515625 514.75390625 77.353515625 469.0625 c 256
 77.353515625 358.75390625 76.1650390625 281.881835938 76.1650390625 185.862304688 c 256
EndSplineSet
Refer: 26 139 S 1 0 0 1 -20.7543 -51.6 2
PickledDataWithLists: "(dp1
S'com.fontlab.hintData'
p2
(dp3
S'vhints'
p4
(lp5
(dp6
S'position'
p7
I89
sS'width'
p8
I219
sasS'hhints'
p9
(lp10
(dp11
g7
I0
sg8
I147
sa(dp12
g7
I333
sg8
I178
sass."
EndChar

StartChar: uni0082
Encoding: 19 130 19
GlifName: uni0082
Width: 578
VWidth: 0
GlyphClass: 2
Flags: HW
HStem: 522.883 117.6
VStem: 215.858 180 223.858 189.6
LayerCount: 2
Back
SplineSet
401.936523438 514.806640625 m 260
 396.37109375 601.612304688 400 617.999023438 421 617.999023438 c 260
 444 617.999023438 433.5 561.499023438 498 561.499023438 c 260
 545.5 561.499023438 575 586.499023438 575 652.499023438 c 260
 575 726.499023438 507.639648438 764.999023438 363.5 764.999023438 c 260
 219.360351562 764.999023438 177.040039062 665.999023438 177.040039062 510.908203125 c 260
 177.040039062 372.063476562 175.948242188 265.999023438 175.948242188 155.060546875 c 260
 175.948242188 34.9990234375 215.383789062 -0.0009765625 293.372070312 -0.0009765625 c 260
 371.361328125 -0.0009765625 412.891601562 34.9990234375 412.891601562 163.372070312 c 260
 412.891601562 291.745117188 408.094726562 409.395507812 401.936523438 514.806640625 c 260
EndSplineSet
Fore
SplineSet
379.05859375 537.283203125 m 260
 387.858398438 537.283203125 391.05859375 530.083007812 391.05859375 518.8828125 c 260
 391.05859375 504.482421875 380.0703125 491.290039062 380.0703125 473.370117188 c 260
 380.0703125 435.465820312 404.750976562 431.791992188 434.470703125 431.791992188 c 260
 513.072265625 431.791992188 535.966796875 483.180664062 535.966796875 513.146484375 c 260
 535.966796875 571.06640625 494.258789062 612.345703125 378.672851562 612.345703125 c 260
 246.258789062 612.345703125 215.489257812 533.282226562 215.489257812 409.208984375 c 260
 215.489257812 298.1328125 214.616210938 213.282226562 214.616210938 124.53125 c 260
 214.616210938 28.482421875 246.165039062 0.482421875 308.555664062 0.482421875 c 260
 370.946289062 0.482421875 404.170898438 28.482421875 404.170898438 131.180664062 c 260
 404.170898438 215.493164062 399.858398438 275.276367188 399.858398438 325.080078125 c 7
 399.858398438 374.8828125 390.927734375 385.220703125 371.05859375 412.083007812 c 260
 359.182617188 428.137695312 356.987304688 456.442382812 356.987304688 482.083007812 c 7
 356.987304688 511.428710938 367.530273438 537.283203125 379.05859375 537.283203125 c 260
EndSplineSet
PickledDataWithLists: "(dp1
S'com.fontlab.hintData'
p2
(dp3
S'vhints'
p4
(lp5
(dp6
S'position'
p7
I176
sS'width'
p8
I225
sa(dp9
g7
I186
sg8
I237
sasS'hhints'
p10
(lp11
(dp12
g7
I618
sg8
I147
sass."
EndChar

StartChar: uni0083
Encoding: 20 131 20
GlifName: uni0083
Width: 562
VWidth: 0
GlyphClass: 2
Flags: HW
HStem: 310.693 129.6
VStem: 196.766 75.2
LayerCount: 2
Back
Fore
SplineSet
491.109375 342.350585938 m 256
 491.716796875 277.859375 460.205078125 226.6953125 386.765625 226.6953125 c 256
 313.327148438 226.6953125 325.870117188 309.89453125 299.965820312 309.89453125 c 256
 274.061523438 309.89453125 271.00390625 290.462890625 271.7421875 247.55078125 c 257
 196.541992188 247.094726562 l 257
 196.541992188 298.765625 218.0390625 355.703125 257.444335938 390.084960938 c 256
 297.56640625 425.09375 328.127929688 440.23828125 393.994140625 440.23828125 c 256
 459.860351562 440.23828125 490.500976562 406.841796875 491.109375 342.350585938 c 256
EndSplineSet
PickledDataWithLists: "(dp1
S'com.fontlab.hintData'
p2
(dp3
S'vhints'
p4
(lp5
(dp6
S'position'
p7
I160
sS'width'
p8
I94
sasS'hhints'
p9
(lp10
(dp11
g7
I353
sg8
I162
sass."
EndChar

StartChar: uni0084
Encoding: 21 132 21
GlifName: uni0084
Width: 642
VWidth: 0
GlyphClass: 2
Flags: HW
HStem: 3.4999 129.6
VStem: -13.0649 180 -2.66488 170.4 227.736 76
LayerCount: 2
Back
SplineSet
273.99 228.399 m 256
 273.99 179.695 278.875 166.736 305.662 167.161 c 256
 332.449 167.586 336.013 199.071 336.013 244.002 c 257
 431.304 244.932 l 257
 431.304 182.932 414.501 106.002 355.79 60.8848 c 256
 297.171 15.8389 222.114 -1.17188 153.772 -0.0351562 c 256
 85.4297 1.10156 51.7441 41.5273 46.1221 121.764 c 260
 40.5 202.001 39.4678 287.76 39.4678 380.38 c 260
 39.4678 473.001 73 511.001 145.025 511.001 c 256
 217.051 511.001 272.681 491.395 272.681 421.197 c 256
 272.681 351 273.99 277.104 273.99 228.399 c 256
EndSplineSet
Fore
SplineSet
269.88671875 183.248046875 m 260
 269.88671875 144.28515625 286.33203125 134.256835938 307.930664062 134.256835938 c 260
 334.182617188 134.256835938 351.501953125 161.115234375 351.501953125 198.9296875 c 261
 427.735351562 199.673828125 l 261
 427.735351562 148.995117188 414.674804688 85.6220703125 367.361328125 49.2646484375 c 260
 315.666992188 13.2001953125 261.532226562 0.5 195.271484375 0.5 c 260
 113.53125 0.5 79.1318359375 56.4990234375 79.1318359375 205.298828125 c 260
 79.1318359375 379.69921875 95.7841796875 412.499023438 177.532226562 412.499023438 c 260
 244.461914062 412.499023438 268.837890625 386.899414062 268.837890625 340.6875 c 260
 268.837890625 283.364257812 269.88671875 223.020507812 269.88671875 183.248046875 c 260
EndSplineSet
PickledDataWithLists: "(dp1
S'com.fontlab.hintData'
p2
(dp3
S'vhints'
p4
(lp5
(dp6
S'position'
p7
I30
sS'width'
p8
I225
sa(dp9
g7
I43
sg8
I213
sa(dp10
g7
I331
sg8
I95
sasS'hhints'
p11
(lp12
(dp13
g7
I0
sg8
I162
sass."
EndChar

StartChar: uni0085
Encoding: 22 133 22
GlifName: uni0085
Width: 320
VWidth: 0
GlyphClass: 2
Flags: HW
HStem: 25.2036 568.8
VStem: 87.1709 173.6
LayerCount: 2
Back
Fore
SplineSet
271.5859375 129.90234375 m 260
 271.5859375 33 238.361328125 -0.796875 175.969726562 -0.796875 c 260
 113.579101562 -0.796875 82.03125 27.203125 82.03125 123.252929688 c 260
 82.03125 219.3046875 80.0947265625 405.034179688 80.0947265625 480.51953125 c 260
 80.0947265625 556.004882812 122 584.823242188 175.969726562 584.823242188 c 260
 230.617151725 584.823242188 271.307617188 572.807617188 271.307617188 488.333984375 c 260
 271.307617188 408.857421875 271.5859375 240 271.5859375 129.90234375 c 260
EndSplineSet
PickledDataWithLists: "(dp1
S'com.fontlab.hintData'
p2
(dp3
S'vhints'
p4
(lp5
(dp6
S'position'
p7
I65
sS'width'
p8
I217
sasS'hhints'
p9
(lp10
(dp11
g7
I0
sg8
I711
sass."
EndChar

StartChar: uni0087
Encoding: 23 135 23
GlifName: uni0087
Width: 642
VWidth: 0
GlyphClass: 2
Flags: HW
HStem: 3.4999 16.8 399.5 16
VStem: 188.625 76 347.825 186.4
LayerCount: 2
Back
SplineSet
342.557 286.563 m 260
 342.557 335.268 328.921 348.25 295.002 347.803 c 260
 262.19 347.355 240.537 314.23 240.537 266.962 c 261
 145.246 266.032 l 261
 145.246 329.38 161.571 408.597 220.713 454.043 c 260
 285.331 499.124 353.922 514.999 437.826 514.999 c 260
 514.002 514.999 564.891 473.242 570.435 393.1 c 260
 576.063 311.723 577.08 224.635 577.08 130.582 c 260
 577.08 37.9619 549.87 -0.000976562 459.662 -0.000976562 c 260
 393.357 -0.000976562 343.867 19.5674 343.867 89.7646 c 260
 343.867 161.419 342.557 236.849 342.557 286.563 c 260
EndSplineSet
Fore
SplineSet
346.669921875 228.75 m 260
 346.669921875 267.713867188 330.224609375 277.7421875 308.625976562 277.7421875 c 260
 282.374023438 277.7421875 265.0546875 250.883789062 265.0546875 213.069335938 c 261
 188.821289062 212.325195312 l 261
 188.821289062 263.00390625 201.881835938 326.377929688 249.1953125 362.734375 c 260
 300.889648438 398.798828125 355.024414062 411.499023438 421.28515625 411.499023438 c 260
 503.025390625 411.499023438 537.424804688 355.5 537.424804688 206.700195312 c 260
 537.424804688 32.2998046875 520.772460938 -0.5 439.024414062 -0.5 c 260
 372.094726562 -0.5 347.717773438 25.099609375 347.717773438 71.3115234375 c 260
 347.717773438 128.634765625 346.669921875 188.979492188 346.669921875 228.75 c 260
EndSplineSet
PickledDataWithLists: "(dp1
S'com.fontlab.hintData'
p2
(dp3
S'vhints'
p4
(lp5
(dp6
S'position'
p7
I145
sS'width'
p8
I95
sa(dp9
g7
I344
sg8
I233
sasS'hhints'
p10
(lp11
(dp12
g7
I0
sg8
I21
sa(dp13
g7
I495
sg8
I20
sass."
EndChar

StartChar: uni0089
Encoding: 24 137 24
GlifName: uni0089
Width: 668
VWidth: 0
GlyphClass: 2
Flags: HW
HStem: -0.122852 107.2 307.077 108
VStem: 77.1412 188.8 373.141 81.6
LayerCount: 2
Back
Fore
SplineSet
372.756835938 204.676757812 m 256
 372.756835938 254.309570312 355.290039062 307.188476562 315.801757812 307.422851562 c 256
 284.463867188 307.608398438 265.556640625 254.131835938 265.556640625 204.676757812 c 256
 265.556640625 158.592773438 281.498046875 107.077148438 315.15625 107.077148438 c 256
 356.161132812 107.077148438 372.756835938 157.442382812 372.756835938 204.676757812 c 256
235.956054688 -0.3056640625 m 256
 148.212890625 -0.3056640625 77.0556640625 73.4775390625 77.0556640625 204.676757812 c 256
 77.0556640625 335.877929688 144.8671875 415.077148438 235.661132812 415.077148438 c 256
 362.024414062 415.077148438 454.356445312 290.874023438 454.356445312 212.185546875 c 256
 454.356445312 76.1796875 357.981445312 -0.3056640625 235.956054688 -0.3056640625 c 256
EndSplineSet
PickledDataWithLists: "(dp1
S'com.fontlab.hintData'
p2
(dp3
S'vhints'
p4
(lp5
(dp6
S'position'
p7
I30
sS'width'
p8
I236
sa(dp9
g7
I400
sg8
I102
sasS'hhints'
p10
(lp11
(dp12
g7
I-4
sg8
I134
sa(dp13
g7
I380
sg8
I135
sass."
EndChar

StartChar: uni008A
Encoding: 25 138 25
GlifName: uni008A_
Width: 668
VWidth: 0
GlyphClass: 2
Flags: HW
HStem: -0.122279 107.2 307.078 108
VStem: 77.1413 81.6 265.941 188.8
LayerCount: 2
Back
Fore
SplineSet
158.65625 204.677734375 m 260
 158.65625 157.443359375 175.25 107.078125 216.256835938 107.078125 c 260
 249.913085938 107.078125 265.856445312 158.592773438 265.856445312 204.677734375 c 260
 265.856445312 254.131835938 246.947265625 307.609375 215.609375 307.422851562 c 260
 176.122070312 307.188476562 158.65625 254.310546875 158.65625 204.677734375 c 260
295.456054688 -0.3046875 m 260
 173.4296875 -0.3046875 77.0556640625 76.1796875 77.0556640625 212.185546875 c 260
 77.0556640625 290.768554688 169.38671875 416.028320312 295.75 415.077148438 c 260
 386.541015625 414.39453125 454.356445312 335.87890625 454.356445312 204.677734375 c 260
 454.356445312 73.4775390625 383.19921875 -0.3046875 295.456054688 -0.3046875 c 260
EndSplineSet
PickledDataWithLists: "(dp1
S'com.fontlab.hintData'
p2
(dp3
S'vhints'
p4
(lp5
(dp6
S'position'
p7
I30
sS'width'
p8
I102
sa(dp9
g7
I266
sg8
I236
sasS'hhints'
p10
(lp11
(dp12
g7
I-4
sg8
I134
sa(dp13
g7
I380
sg8
I135
sass."
EndChar

StartChar: uni008B
Encoding: 26 139 26
GlifName: uni008B_
Width: 492
VWidth: 0
GlyphClass: 2
Flags: HW
HStem: 306.7 142.4
LayerCount: 2
Back
Fore
SplineSet
308.618164062 447.861328125 m 260
 245.484375 448.596679688 186.583984375 448.2578125 117.431640625 448.922851562 c 260
 48.2822265625 449.586914062 31.337890625 425.775390625 30.4931640625 393.09765625 c 260
 29.65234375 360.551757812 69.373046875 338.887695312 121.931640625 338.270507812 c 260
 174.4921875 337.65234375 239.126953125 338.59765625 300.475585938 338.700195312 c 260
 361.82421875 338.801757812 393.063476562 345.025390625 394.170898438 385.723632812 c 260
 395.3515625 429.09765625 371.750976562 447.125976562 308.618164062 447.861328125 c 260
EndSplineSet
PickledDataWithLists: "(dp1
S'com.fontlab.hintData'
p2
(dp3
S'hhints'
p4
(lp5
(dp6
S'position'
p7
I333
sS'width'
p8
I178
sass."
EndChar

StartChar: dotlessi
Encoding: 27 305 27
GlifName: dotlessi
Width: 362
VWidth: 0
GlyphClass: 2
Flags: HW
VStem: 82.5461 188.8
LayerCount: 2
Back
Fore
SplineSet
271.26953125 92.8662109375 m 260
 271.26953125 22.638671875 243.323242188 -0.76171875 171.345703125 0.0947265625 c 260
 99.369140625 0.951171875 82.19140625 33.302734375 82.19140625 102.494140625 c 260
 82.19140625 171.686523438 83.7216796875 252.094726562 83.7216796875 310.90625 c 260
 83.7216796875 369.716796875 116.17578125 409.516601562 170.819335938 408.866210938 c 260
 225.461914062 408.21484375 269 392.006835938 269 313.450195312 c 260
 269 234.89453125 271.26953125 163.09375 271.26953125 92.8662109375 c 260
EndSplineSet
PickledDataWithLists: "(dp1
S'com.fontlab.hintData'
p2
(dp3
S'vhints'
p4
(lp5
(dp6
S'position'
p7
I59
sS'width'
p8
I236
sass."
EndChar

StartChar: k
Encoding: 30 107 30
GlifName: k
Width: 497
VWidth: 0
Flags: HW
HStem: 22.0023 136 343.602 93.6
VStem: 9.60347 188.8
LayerCount: 2
Back
SplineSet
256.139648438 309 m 1049
249.749023438 154 m 1,1,-1
 216.546875 154 l 256,0,1
 216.546875 87 175.016601562 -0.0009765625 97.02734375 -0.0009765625 c 256,2,3
 19.0380859375 -0.0009765625 -20.396484375 34.9990234375 -20.396484375 155.061523438 c 256,4,5
 -20.396484375 275.125976562 -22.8173828125 507.288085938 -22.8173828125 601.64453125 c 256,6,7
 -22.8173828125 696.000976562 24.0283203125 732.024414062 97.02734375 732.024414062 c 1,30,31
 191.028320312 732.024414062 209.749023438 672 209.749023438 531 c 0,32,33
 209.749023438 479.1171875 206.432617188 422.180664062 200.416015625 380.1953125 c 1,34,35
 205.383789062 364.341796875 217.951171875 356 249.749023438 356 c 0,0,1
 308.061523438 356 293.616210938 387 293.616210938 414.290039062 c 0,4,5
 293.616210938 479 322.60546875 511 411.010742188 511 c 0,6,7
 503.93359375 511 525.361328125 489.313476562 525.361328125 379 c 0,8,9
 525.361328125 262 386.130859375 202 256.139648438 202 c 1024,10,11
249.749023438 154 m 1049
256.139648438 309 m 0,10,11
 386.130859375 309 525.361328125 249 525.361328125 132 c 0,8,9
 525.361328125 21.6865234375 503.93359375 0 411.010742188 0 c 0,6,7
 322.60546875 0 293.616210938 32 293.616210938 96.7099609375 c 0,4,5
 293.616210938 124 308.061523438 154 249.749023438 154 c 1024,0,1
EndSplineSet
Fore
SplineSet
255.534179688 122.40234375 m 4
 223.94921875 122.40234375 l 260
 223.94921875 68.802734375 190.724609375 -0.798828125 128.333007812 -0.798828125 c 260
 65.94140625 -0.798828125 34.39453125 27.201171875 34.39453125 123.251953125 c 260
 34.39453125 219.302734375 32.45703125 405.033203125 32.45703125 480.517578125 c 260
 32.45703125 558.40234375 69.93359375 581.720703125 128.333007812 584.822265625 c 5
 203.534179688 584.822265625 218.510742188 536.802734375 218.510742188 424.001953125 c 4
 218.510742188 382.49609375 215.857421875 336.947265625 211.043945312 303.358398438 c 5
 215.018554688 290.67578125 225.072265625 284.001953125 250.510742188 284.001953125 c 4
 277.133789062 284.001953125 285.604492188 292.802734375 285.604492188 330.634765625 c 4
 285.604492188 382.40234375 308.795898438 408.001953125 379.51953125 408.001953125 c 4
 453.858398438 408.001953125 471 384.001953125 471 317.602539062 c 4
 471 239.202148438 413.133789062 204.001953125 366.734375 204.001953125 c 5
 413.133789062 204.001953125 471 176.802734375 471 104.802734375 c 4
 471 16.5517578125 453.858398438 -0.7978515625 379.51953125 -0.7978515625 c 4
 308.795898438 -0.7978515625 285.604492188 24.802734375 285.604492188 76.5703125 c 4
 285.604492188 116.001953125 277.357421875 122.40234375 255.534179688 122.40234375 c 4
EndSplineSet
EndChar

StartChar: y
Encoding: 31 121 31
GlifName: y
Width: 520
VWidth: 0
Flags: HW
LayerCount: 2
Back
SplineSet
257.59765625 163.196289062 m 260
 303.504882812 163.196289062 306.154296875 190.536132812 306.154296875 246.857421875 c 260
 306.154296875 285.141601562 307.46484375 356.484375 307.46484375 414.2890625 c 260
 307.46484375 478.999023438 337.936523438 510.999023438 430.859375 510.999023438 c 260
 523.783203125 510.999023438 544.59765625 469.999023438 544.59765625 267.999023438 c 260
 544.59765625 65.9990234375 380.051757812 0 259.375976562 0 c 4
 138.763671875 0 -27.845703125 65.9990234375 -27.845703125 267.999023438 c 260
 -27.845703125 469.999023438 -7.0302734375 510.999023438 85.892578125 510.999023438 c 260
 178.81640625 510.999023438 209.287109375 478.999023438 209.287109375 414.2890625 c 260
 209.287109375 356.521484375 210.59765625 285.224609375 210.59765625 247.857421875 c 260
 210.59765625 193.053710938 210.6015625 163.196289062 257.59765625 163.196289062 c 260
EndSplineSet
Fore
SplineSet
487 244.567382812 m 0
 487 155.642578125 487 92.5673828125 479 36.5673828125 c 0
 460.219726562 -94.8984375 376.599609375 -177.294921875 243.161132812 -177.294921875 c 0
 109.950195312 -177.294921875 43.5859375 -85.033203125 43.5859375 -46.48828125 c 0
 43.5859375 -29.6884765625 58.2001953125 -15.978515625 86.7822265625 -15.978515625 c 0
 101.84765625 -15.978515625 111.981445312 -32.271484375 139.224609375 -41.845703125 c 0
 160.79296875 -49.4267578125 178.875 -55.51171875 206.1015625 -55.51171875 c 0
 249.653320312 -55.51171875 263.000976562 -33.8330078125 263.000976562 -1.1376953125 c 1
 150.200195312 -0.232421875 29.044921875 60.5673828125 29.044921875 212.56640625 c 0
 29.044921875 374.166015625 45.697265625 406.966796875 120.036132812 406.966796875 c 0
 194.375 406.966796875 218.750976562 381.366210938 218.750976562 329.598632812 c 0
 218.750976562 283.384765625 219.799804688 226.346679688 219.799804688 196.453125 c 0
 219.799804688 152.610351562 219.801757812 128.723632812 257.399414062 128.723632812 c 0
 294.125 128.723632812 296.245117188 150.595703125 296.245117188 195.653320312 c 0
 296.245117188 226.280273438 297.293945312 283.354492188 297.293945312 329.598632812 c 0
 297.293945312 381.366210938 321.669921875 406.966796875 396.008789062 406.966796875 c 0
 478.151367188 406.966796875 487 352.567382812 487 244.567382812 c 0
EndSplineSet
EndChar

StartChar: j
Encoding: 32 106 32
GlifName: j
Width: 422
VWidth: 0
Flags: HW
LayerCount: 2
Back
Fore
SplineSet
395 506.80078125 m 260
 395 457.072265625 345.998046875 436.083984375 297.7734375 436.083984375 c 260
 240.536132812 436.083984375 187.834960938 449.926757812 187.834960938 502.21875 c 260
 187.834960938 547.103515625 229.540039062 568.243164062 292.280273438 568.243164062 c 260
 354.165039062 568.243164062 395 544.315429688 395 506.80078125 c 260
387 316.62890625 m 260
 387 366.228515625 350.447265625 407.403320312 295.799804688 407.403320312 c 260
 241.400390625 407.403320312 199.924804688 378.584960938 199.924804688 303.100585938 c 260
 199.924804688 189.532226562 199.014648438 131.766601562 199.014648438 35.0283203125 c 260
 199.014648438 -32.9716796875 163.014648438 -48.1318359375 120.697265625 -48.1318359375 c 260
 91.8193359375 -48.1318359375 74.0380859375 -25.0419921875 58.97265625 -25.0419921875 c 260
 31.03125 -25.0419921875 25.431640625 -40.9716796875 25.431640625 -57.7724609375 c 260
 25.431640625 -96.572265625 98.3681640625 -177.955078125 231.580078125 -177.955078125 c 260
 347.374023438 -177.955078125 388.600585938 -97.6201171875 388.600585938 33.4287109375 c 260
 387 316.62890625 l 260
EndSplineSet
EndChar

StartChar: v
Encoding: 33 118 33
GlifName: v
Width: 516
VWidth: 0
Flags: HW
LayerCount: 2
Back
Fore
SplineSet
255.399414062 130.657226562 m 260
 292.125976562 130.657226562 294.245117188 152.528320312 294.245117188 197.5859375 c 260
 294.245117188 228.212890625 295.293945312 285.287109375 295.293945312 331.53125 c 260
 295.293945312 383.298828125 319.670898438 408.899414062 394.008789062 408.899414062 c 260
 468.348632812 408.899414062 485 376.099609375 485 214.499023438 c 260
 485 52.8994140625 353.36328125 0.099609375 256.822265625 0.099609375 c 4
 160.333007812 0.099609375 27.044921875 52.8994140625 27.044921875 214.499023438 c 260
 27.044921875 376.099609375 43.697265625 408.899414062 118.036132812 408.899414062 c 260
 192.375 408.899414062 216.750976562 383.298828125 216.750976562 331.53125 c 260
 216.750976562 285.317382812 217.799804688 228.279296875 217.799804688 198.385742188 c 260
 217.799804688 154.54296875 217.802734375 130.657226562 255.399414062 130.657226562 c 260
EndSplineSet
EndChar

StartChar: w
Encoding: 34 119 34
GlifName: w
Width: 766
VWidth: 0
Flags: HW
LayerCount: 2
Back
Fore
SplineSet
509.5546875 130.657226562 m 0
 541.7421875 130.657226562 543.600585938 147.299804688 543.600585938 181.5859375 c 0
 543.600585938 215.872070312 544.6484375 279.763671875 544.6484375 331.53125 c 0
 544.6484375 383.298828125 569.025390625 408.899414062 643.364257812 408.899414062 c 0
 717.703125 408.899414062 734.35546875 376.099609375 734.35546875 214.499023438 c 0
 734.35546875 52.8994140625 607.333984375 0.099609375 514.177734375 0.099609375 c 4
 473.411132812 0.099609375 426.45703125 13.138671875 384.698242188 44.720703125 c 5
 343.262695312 13.138671875 296.569335938 0.099609375 255.77734375 0.099609375 c 4
 162.647460938 0.099609375 34 52.8994140625 34 214.499023438 c 0
 34 376.099609375 50.65234375 408.899414062 124.991210938 408.899414062 c 0
 199.330078125 408.899414062 223.70703125 383.298828125 223.70703125 331.53125 c 0
 223.70703125 279.763671875 224.754882812 215.872070312 224.754882812 182.385742188 c 0
 224.754882812 148.900390625 224.7578125 130.657226562 257.5546875 130.657226562 c 0
 283.471679688 130.657226562 293.946289062 137.311523438 298.14453125 150.873046875 c 1
 293.41015625 184.265625 290.80078125 221.374023438 290.80078125 262.499023438 c 0
 290.80078125 387.747070312 306.630859375 408.7734375 387.377929688 408.7734375 c 1
 461.6484375 408.548828125 477.5546875 387.745117188 477.5546875 262.499023438 c 0
 477.5546875 220.993164062 474.90234375 183.6015625 470.088867188 150.012695312 c 1
 474.0625 137.330078125 484.1171875 130.657226562 509.5546875 130.657226562 c 0
EndSplineSet
EndChar

StartChar: x
Encoding: 35 120 35
GlifName: x
Width: 511
VWidth: 0
Flags: HW
VStem: 91.7989 188.8
LayerCount: 2
Back
SplineSet
145.200195312 356 m 1
 271.200195312 482 290.200195312 510.46875 394.200195312 510.46875 c 256
 505.200195312 510.46875 563.200195312 452.46875 563.200195312 388.46875 c 256
 563.200195312 328.46875 549.24609375 280.467773438 490.020507812 280.467773438 c 256
 462.020507812 280.467773438 445.200195312 311.46875 421.200195312 311.46875 c 256
 387.200195312 311.46875 343.200195312 236.46875 343.200195312 236.46875 c 257
 145.200195312 356 l 1
369.200195312 154.46875 m 1
 243.200195312 28.46875 224.200195312 0 120.200195312 0 c 256
 9.2001953125 0 -48.7998046875 58 -48.7998046875 122 c 256
 -48.7998046875 182 -34.845703125 230.000976562 24.3798828125 230.000976562 c 256
 52.3798828125 230.000976562 69.2001953125 199 93.2001953125 199 c 256
 127.200195312 199 171.200195312 274 171.200195312 274 c 257
 369.200195312 154.46875 l 1
EndSplineSet
Fore
SplineSet
450.200195312 236.846679688 m 4
 349.565429688 148.046875 247.497070312 68.2783203125 197.838867188 30.447265625 c 4
 167.877929688 7.6220703125 140.799804688 0.046875 121.0390625 0.046875 c 260
 68.8193359375 0.046875 16.599609375 47.6376953125 16.599609375 87.6220703125 c 4
 16.599609375 122.938476562 83.4384765625 167.622070312 181.838867188 238.822265625 c 4
 258.723632812 294.454101562 336.331054688 408.421875 410.638671875 408.421875 c 260
 452.819335938 408.421875 495 360.831054688 495 320.846679688 c 4
 495 281.3203125 477.774414062 261.177734375 450.200195312 236.846679688 c 4
61.3994140625 236.846679688 m 4
 30.697265625 257.087890625 16.599609375 281.3203125 16.599609375 320.846679688 c 4
 16.599609375 360.831054688 64.599609375 408.421875 112.599609375 408.421875 c 260
 132.360351562 408.421875 150.688476562 397.213867188 168.599609375 382.447265625 c 4
 202.443359375 354.543945312 268.360351562 293.924804688 307.360351562 264.046875 c 4
 402.046875 191.506835938 495 128.830078125 495 87.6220703125 c 4
 495 47.6376953125 447 0.046875 399 0.046875 c 260
 379.743164062 0.046875 356.161132812 0.046875 324.161132812 24.046875 c 4
 272.327148438 62.9228515625 167.29296875 167.037109375 61.3994140625 236.846679688 c 4
EndSplineSet
EndChar

StartChar: z
Encoding: 36 122 36
GlifName: z
Width: 460
VWidth: 0
Flags: HW
LayerCount: 2
Back
SplineSet
402.577148438 136.452148438 m 0
 481.498046875 136.452148438 498.518554688 112 498.518554688 58.779296875 c 0
 498.518554688 7.888671875 464.084960938 0 387.399414062 0 c 0
 308.399414062 0 132.399414062 0 66.3994140625 0 c 0
 21.3994140625 0 -32.6005859375 34 -32.6005859375 92 c 0
 -32.6005859375 152.983398438 -23.2998046875 174 34.3935546875 231.693359375 c 0
 83.9765625 281.276367188 132.04296875 329.270507812 176.743164062 373.91015625 c 1
 150.046875 374 123.180664062 374 97.220703125 374 c 0
 20.53515625 374 -13.8984375 392.888671875 -13.8984375 443.779296875 c 0
 -13.8984375 497 3.1220703125 510.452148438 82.04296875 510.452148438 c 0
 166.220703125 510.452148438 328.283203125 510.5 412.399414062 510.5 c 0
 478.399414062 510.5 499.399414062 455.149414062 499.399414062 427 c 0
 499.399414062 358.692382812 482.399414062 348.537109375 438.845703125 304.983398438 c 0
 383.5390625 249.676757812 334.931640625 195.569335938 274.607421875 136.172851562 c 1
 320.37890625 136.3203125 365.287109375 136.452148438 402.577148438 136.452148438 c 0
385.399414062 356 m 5
 259.399414062 482 240.399414062 510.46875 136.399414062 510.46875 c 260
 25.3994140625 510.46875 -32.6005859375 452.46875 -32.6005859375 388.46875 c 260
 -32.6005859375 328.46875 -18.646484375 280.467773438 40.5791015625 280.467773438 c 260
 68.5791015625 280.467773438 85.3994140625 311.46875 109.399414062 311.46875 c 260
 143.399414062 311.46875 187.399414062 236.46875 187.399414062 236.46875 c 261
 385.399414062 356 l 5
517.399414062 296 m 4
 552.357421875 325.848632812 573.399414062 351.591796875 573.399414062 401 c 4
 573.399414062 450.98046875 513.399414062 510.46875 453.399414062 510.46875 c 260
 428.698242188 510.46875 406.724609375 495.260742188 383.399414062 478 c 4
 333.399414062 441 231.399414062 366 178.399414062 321 c 4
 75.9619140625 234.025390625 -24.6005859375 158.876953125 -24.6005859375 109.46875 c 4
 -24.6005859375 59.48828125 35.3994140625 0 95.3994140625 0 c 260
 120.100585938 0 164.422851562 16.2451171875 191.399414062 38 c 4
 253.399414062 88 387.399414062 185 517.399414062 296 c 4
161.399414062 154.46875 m 5
 287.399414062 28.46875 306.399414062 0 410.399414062 0 c 260
 521.399414062 0 579.399414062 58 579.399414062 122 c 260
 579.399414062 182 565.4453125 230.000976562 506.219726562 230.000976562 c 260
 478.219726562 230.000976562 461.399414062 199 437.399414062 199 c 260
 403.399414062 199 359.399414062 274 359.399414062 274 c 261
 161.399414062 154.46875 l 5
EndSplineSet
Fore
SplineSet
369.141601562 109.211914062 m 4
 432.278320312 109.211914062 445.895507812 89.650390625 445.895507812 47.0732421875 c 4
 445.895507812 6.361328125 418.348632812 0.0498046875 357 0.0498046875 c 4
 293.799804688 0.0498046875 153 0.0498046875 100.200195312 0.0498046875 c 4
 64.2001953125 0.0498046875 21 27.25 21 73.650390625 c 4
 21 122.436523438 28.4404296875 139.25 74.5947265625 185.404296875 c 4
 114.26171875 225.071289062 152.71484375 263.466796875 188.474609375 299.177734375 c 5
 167.118164062 299.25 145.625 299.25 124.856445312 299.25 c 4
 63.5087890625 299.25 35.9619140625 314.361328125 35.9619140625 355.073242188 c 4
 35.9619140625 397.650390625 49.578125 408.412109375 112.71484375 408.412109375 c 4
 180.056640625 408.412109375 309.70703125 408.450195312 377 408.450195312 c 4
 429.799804688 408.450195312 446.599609375 364.169921875 446.599609375 341.650390625 c 4
 446.599609375 287.00390625 433 278.879882812 398.157226562 244.037109375 c 4
 353.911132812 199.791015625 315.025390625 156.505859375 266.766601562 108.98828125 c 5
 303.383789062 109.106445312 339.309570312 109.211914062 369.141601562 109.211914062 c 4
EndSplineSet
EndChar

StartChar: uni0B85
Encoding: 37 2949 37
GlifName: uni0B_85
Width: 1356
VWidth: 0
Flags: HW
LayerCount: 2
Back
SplineSet
1195.27832031 -109.431640625 m 256
 1195.27832031 -206.333984375 1162.05371094 -240.130859375 1099.66210938 -240.130859375 c 256
 1037.27148438 -240.130859375 1005.72363281 -212.130859375 1005.72363281 -116.081054688 c 256
 1005.72363281 -22.7177734375 1003.78710938 157.813476562 1003.78710938 231.185546875 c 256
 1003.78710938 306.670898438 1045.69238281 335.489257812 1099.66210938 335.489257812 c 256
 1154.30957031 335.489257812 1195 323.473632812 1195 239 c 256
 1195 161.741210938 1195.27832031 -2.4052734375 1195.27832031 -109.431640625 c 256
542.224609375 214 m 256
 542.224609375 239.184570312 533.209962312 267.583279792 513.908203125 267.680664062 c 256
 494.74609375 267.77734375 483.743164062 238.837890625 483.743164062 214 c 256
 483.743164062 189.192382812 493.390625 164.126953125 513.662109375 164.126953125 c 256
 534.041015625 164.126953125 542.224609375 188.852539062 542.224609375 214 c 256
513.421875 109.78125 m 256
 426.706054688 109.78125 356.75390625 146.942382812 356.75390625 214 c 256
 356.75390625 269.250976562 423.637695312 303.049804688 513.423828125 303.049804688 c 256
 603.310546875 303.049804688 669.166015625 269.250976562 669.166015625 214 c 256
 669.166015625 146.942382812 600.231445312 109.78125 513.421875 109.78125 c 256
356.75390625 214 m 0
 356.75390625 297.7578125 418.045898438 342 591 342 c 0
 754.268554688 342 936.153320312 248.3671875 936.153320312 44.25 c 0
 936.153320312 -29.11328125 907.537109375 -94.4619140625 873 -137 c 0
 754 -75 l 1
 753 28 l 0
 753 84.162109375 750.832830765 131.018445469 720 181 c 0
 679.888671875 246.022460938 627.111328125 291 580 291 c 0
 491.202148438 291 483.353515625 260.302734375 483.353515625 214 c 0
 356.75390625 214 l 0
420 -23 m 1
 399.307617188 -23 382.19921875 -27.3583984375 382.19921875 -49.3798828125 c 0
 382.19921875 -60.3798828125 397.938501801 -71.2048321174 413.045898438 -72.7548828125 c 0
 465.099609375 -78.095703125 524 -77 612 -77 c 0
 700 -77 754 -62.140625 754 -23 c 1
 728.7421875 -23 466.459960938 -23 420 -23 c 1
1050 -23 m 0
 1006.38769531 -23 970.337890625 -23.1640625 932 -23 c 1
 906.557617188 -139.530273438 844 -240 558 -240 c 0
 293.786132812 -240 187 -162 187 -76 c 0
 187 11.5712890625 243 67.5263671875 359 67.5263671875 c 0
 464.409179688 67.5263671875 967.161132812 69.462890625 1050 69.462890625 c 0
 1050 -23 l 0
EndSplineSet
Fore
SplineSet
121.6171875 -58 m 260
 121.6171875 46 202 82 331 82 c 4
 414.020957735 82 953.83488004 81.1947091261 1014 81 c 257
 1014 0 l 257
 298 0 l 260
 298 -32 317 -54.5 512 -54.5 c 260
 694.120117188 -54.5 728.513671875 2 728.513671875 68 c 260
 728.513671875 200 621.513671875 292 528 292 c 0
 511.513671875 292 456.353515625 286 456.353515625 220 c 0
 328.75390625 220 l 0
 328.75390625 303.7578125 400 348 511 348 c 0
 703 348 911.153320312 239 911.153320312 50.25 c 260
 911.153320312 -146 824.335840278 -239 519 -239 c 260
 231 -239 121.6171875 -179.900390625 121.6171875 -58 c 260
1195.27832031 -103.431640625 m 256
 1195.27832031 -200.333984375 1162.05371094 -234.130859375 1099.66210938 -234.130859375 c 256
 1037.27148438 -234.130859375 1005.72363281 -206.130859375 1005.72363281 -110.081054688 c 256
 1005.72363281 -16.7177734375 1003.78710938 157.813476562 1003.78710938 231.185546875 c 256
 1003.78710938 306.670898438 1045.69238281 335.489257812 1099.66210938 335.489257812 c 256
 1154.30957031 335.489257812 1195 323.473632812 1195 239 c 256
 1195 161.741210938 1195.27832031 3.5947265625 1195.27832031 -103.431640625 c 256
514.802734375 220 m 256
 514.802734375 245.184570312 505.788087312 273.583279792 486.486328125 273.680664062 c 256
 467.32421875 273.77734375 456.321289062 244.837890625 456.321289062 220 c 256
 456.321289062 195.192382812 465.96875 170.126953125 486.240234375 170.126953125 c 256
 506.619140625 170.126953125 514.802734375 194.852539062 514.802734375 220 c 256
486 115.78125 m 256
 399.284179688 115.78125 329.33203125 152.942382812 329.33203125 220 c 256
 329.33203125 275.250976562 396.215820312 309.049804688 486.001953125 309.049804688 c 256
 575.888671875 309.049804688 641.744140625 275.250976562 641.744140625 220 c 256
 641.744140625 152.942382812 572.809570312 115.78125 486 115.78125 c 256
EndSplineSet
EndChar

StartChar: uni0B86
Encoding: 38 2950 38
GlifName: uni0B_86
Width: 1626
VWidth: 0
Flags: HW
LayerCount: 2
Back
SplineSet
1193 0.599609375 m 128
 1219.40039062 -25.7998046875 1232.59960938 -60.8662109375 1232.59960938 -104.599609375 c 0
 1232.59960938 -151.533203125 1218.73339844 -193.666015625 1191 -231 c 128
 1163.26660156 -268.333984375 1124.86621094 -297.533203125 1075.79980469 -318.599609375 c 128
 1026.73339844 -339.666015625 971.533203125 -350.200195312 910.200195312 -350.200195312 c 0
 869.133789062 -350.200195312 833.133789062 -344.733398438 802.200195312 -333.799804688 c 128
 771.266601562 -322.866210938 747.532721291 -307.666424858 731 -288.200195312 c 128
 714.466796875 -268.733398438 706.200195312 -246.733398438 706.200195312 -222.200195312 c 0
 706.200195312 -190.200195312 717.799804688 -164.200195312 741 -144.200195312 c 128
 764.200195312 -124.200195312 796.06640625 -114.200195312 836.599609375 -114.200195312 c 2
 853.400390625 -114.200195312 l 1
 853.400390625 -187 l 1
 836.599609375 -187 l 2
 824.866210938 -187 815.134205305 -190.334467298 807.400390625 -197 c 128
 799.666015625 -203.666015625 795.799804688 -212.06640625 795.799804688 -222.200195312 c 0
 795.799804688 -236.599609375 806.733599344 -248.732953187 828.599609375 -258.599609375 c 128
 850.466796875 -268.466796875 877.666015625 -273.400390625 910.200195312 -273.400390625 c 0
 953.400390625 -273.400390625 992.199701868 -266.199016525 1026.59960938 -251.799804688 c 128
 1061 -237.400390625 1087.79933593 -217.400039055 1107 -191.799804688 c 128
 1126.20019531 -166.200195313 1135.79980469 -137.133789062 1135.79980469 -104.599609375 c 0
 1135.79980469 -85.400390625 1130.60067557 -69.3995243711 1120.20019531 -56.599609375 c 128
 1109.79980469 -43.7998046875 1095.79980469 -37.400390625 1078.20019531 -37.400390625 c 0
 1059 -37.400390625 1043.00048818 -43.6665141728 1030.20019531 -56.2001953125 c 128
 1017.40039062 -68.7333984375 1011 -83.7998046875 1011 -101.400390625 c 2
 1011 -149.400390625 l 1
 918.200195312 -149.400390625 l 1
 918.200195312 -7.7998046875 l 1
 763.799804688 -7.7998046875 l 1
 738.200195312 -56.8662109375 698.999600188 -95.1330204847 646.200195312 -122.599609375 c 128
 593.400390625 -150.06640625 530.733398438 -163.799804688 458.200195312 -163.799804688 c 0
 412.866210938 -163.799804688 372.200195312 -157.93359375 336.200195312 -146.200195312 c 128
 300.200195312 -134.466796875 272.066894495 -118.333502481 251.799804688 -97.7998046875 c 128
 231.533203125 -77.2666015625 221.400390625 -53.93359375 221.400390625 -27.7998046875 c 0
 221.400390625 1 231.665922694 23.6661310385 252.200195312 40.2001953125 c 128
 272.733398438 56.7333984375 304.866210938 65 348.599609375 65 c 2
 691 65 l 1
 696.333984375 87.93359375 699 109.799804688 699 130.599609375 c 0
 699 180.733398438 685.665533306 221.399978393 659 252.599609375 c 128
 632.333984375 283.799804688 596.599609375 299.400390625 551.799804688 299.400390625 c 1
 538.200195312 298.599609375 l 1
 552.599609375 289.533203125 563.93359375 278.06640625 572.200195312 264.200195312 c 128
 580.466796875 250.333984375 584.599609375 234.599609375 584.599609375 217 c 0
 584.599609375 183.93359375 573.666015625 156.866210938 551.799804688 135.799804688 c 128
 529.93359375 114.733398438 501.93359375 104.200195312 467.799804688 104.200195312 c 0
 433.133789062 104.200195312 404.600548489 114.60062071 382.200195312 135.400390625 c 128
 359.799804688 156.200195312 348.599609375 182.599609375 348.599609375 214.599609375 c 0
 348.599609375 245.533203125 357.266410392 273.266736628 374.599609375 297.799804688 c 128
 391.93359375 322.333984375 416.06604173 341.534016289 447 355.400390625 c 128
 477.93359375 369.266601562 512.866210938 376.200195312 551.799804688 376.200195312 c 0
 599.266601562 376.200195312 641.533625324 365.533936686 678.599609375 344.200195312 c 128
 715.666015625 322.866210938 744.600769806 293.533849657 765.400390625 256.200195312 c 128
 786.200195312 218.866210938 796.599609375 177 796.599609375 130.599609375 c 0
 796.599609375 109.266601562 794.466796875 87.400390625 790.200195312 65 c 1
 918.200195312 65 l 1
 918.200195312 361.799804688 l 1
 1011 361.799804688 l 1
 1011 20.2001953125 l 1
 1034.46679688 33.533203125 1060.33398438 40.2001953125 1088.59960938 40.2001953125 c 0
 1131.79980469 40.2001953125 1166.59912109 26.9995117052 1193 0.599609375 c 128
492.200195312 188.599609375 m 128
 498.866210938 195.266601562 502.200195312 203.93359375 502.200195312 214.599609375 c 0
 502.200195312 224.733398438 498.867167175 233.000996072 492.200195312 239.400390625 c 128
 485.533203125 245.799804688 477.133789062 249 467 249 c 0
 456.333984375 249 447.532716423 245.800331976 440.599609375 239.400390625 c 128
 433.666015625 233 430.200195312 224.733398438 430.200195312 214.599609375 c 256
 430.200195312 204.466796875 433.533710595 195.934081672 440.200195312 189 c 128
 446.866210938 182.06640625 455.533203125 178.599609375 466.200195312 178.599609375 c 256
 476.866210938 178.599609375 485.534179688 181.932617188 492.200195312 188.599609375 c 128
573.799804688 -66.2001953125 m 128
 607.133789062 -52.333984375 633.93359375 -32.8662109375 654.200195312 -7.7998046875 c 1
 344.599609375 -7.7998046875 l 2
 327 -7.7998046875 318.200195312 -14.466796875 318.200195312 -27.7998046875 c 0
 318.200195312 -44.333984375 331.134150865 -58.333168204 357 -69.7998046875 c 128
 382.866210938 -81.2666015625 416.599609375 -87 458.200195312 -87 c 0
 501.93359375 -87 540.466652818 -80.0660599459 573.799804688 -66.2001953125 c 128
EndSplineSet
Fore
SplineSet
990 -360 m 0
 1076 -360 1119 -328 1146 -272 c 256
 1169.74829821 -222.744270381 1168.78417969 -161 1168.78417969 -125 c 0
 1168.78417969 -79.8623046875 1152.78027344 -69.7568359375 1135.34082031 -69.7568359375 c 256
 1109.08886719 -69.7568359375 1091.76953125 -96.615234375 1091.76953125 -134.4296875 c 257
 1015.53613281 -135.173828125 l 257
 1015.53613281 -84.4951171875 1026.97363281 -18.9052734375 1075.91015625 15.2353515625 c 256
 1127.60449219 51.2998046875 1164.73925781 64 1231 64 c 260
 1289 64 1370 12 1370 -168 c 260
 1370 -405 1258 -541 990 -541 c 256
 818 -541 688 -460 688 -333 c 0
 688 -239 754 -197 818 -197 c 0
 873 -197 895.288085938 -214 895.288085938 -237 c 0
 895.288085938 -261 888 -264 875 -264 c 0
 852 -264 837 -275 837 -292 c 0
 837 -310 852.999925014 -330.000170424 878 -341 c 0
 911.60546875 -355.786132812 936 -360 990 -360 c 0
EndSplineSet
Refer: 37 2949 N 1 0 0 1 -102 0 2
EndChar
